<svg width="43" height="43" viewBox="0 0 43 43" fill="none" xmlns="http://www.w3.org/2000/svg">
<g clip-path="url(#clip0_57_48)">
<rect width="43" height="43" rx="21.5" fill="white"/>
<g clip-path="url(#clip1_57_48)">
<path fill-rule="evenodd" clip-rule="evenodd" d="M-18.5 -8.5H61.5V51.5H-18.5V-8.5Z" fill="white"/>
<path fill-rule="evenodd" clip-rule="evenodd" d="M-18.5 11.5H61.5V51.5H-18.5V11.5Z" fill="#0039A6"/>
<path fill-rule="evenodd" clip-rule="evenodd" d="M-18.5 31.5H61.5V51.5H-18.5V31.5Z" fill="#D52B1E"/>
</g>
<g clip-path="url(#clip2_57_48)">
<path d="M-18.5 -8.5H61.5V51.5H-18.5V-8.5Z" fill="#00843D"/>
<path d="M26.2001 -1.875C27.1545 -1.42764 28.0033 -0.783161 28.6906 0.0159793C29.3779 0.81512 29.8881 1.7508 30.1877 2.76139C30.4872 3.77198 30.5692 4.83457 30.4284 5.87916C30.2876 6.92376 29.927 7.92667 29.3705 8.82184C28.814 9.71702 28.0742 10.4842 27.1998 11.0727C26.3254 11.6613 25.3362 12.058 24.2974 12.2366C23.2586 12.4152 22.1938 12.3717 21.173 12.109C20.1522 11.8463 19.1986 11.3704 18.3751 10.7125C20.0112 11.4008 21.8392 11.4834 23.5307 10.9455C25.2223 10.4075 26.6667 9.28414 27.6046 7.77712C28.5426 6.27011 28.9126 4.47812 28.6483 2.72285C28.384 0.967584 27.5027 -0.635995 26.1626 -1.8L26.2001 -1.875ZM19.1251 3.625L19.9251 1.025L17.7126 2.6375H20.4501L18.2251 1.025L19.1251 3.625ZM19.1251 -0.200001L19.9251 -2.8L17.7126 -1.1875H20.4501L18.2251 -2.8375L19.1251 -0.200001ZM22.9001 1.75L23.7001 -0.850001L21.4751 0.762498H24.2251L22.0001 -0.850001L22.9001 1.75ZM15.2751 5.5375L16.1376 2.9375L13.9126 4.5375H16.6626L14.4376 2.9375L15.2751 5.5375ZM19.0626 7.4625L19.9126 4.875L17.7001 6.475H20.4376L18.2126 4.875L19.0626 7.4625Z" fill="white"/>
<path d="M-7.67505 -8.5H8.52495V51.5H-7.67505V-8.5Z" fill="#D22630"/>
<path d="M8.525 -1.55V-0.937503L7.5875 -0.0875025L7.9125 0.187497L7.25 0.812497L7.5375 1.0375V0.662498H8.1V1.1375L6.825 2.325H6.2125L6.125 1.85H6.5L6.125 1.5125L5.125 2.4625L6.075 3.3125L6.5 2.975H6.125L6.2125 2.5125H6.8375L8.1 3.7375V4.2125H7.5V3.7875L7.2125 4.0625L7.875 4.6375L7.55 4.9625L8.5 5.8125V6.3875L6.9375 4.9625L7.2125 4.6375L6.6 4.0625L7.125 3.55L6.7875 3.2125L6.0875 3.7875L4.5 2.3625L6.0625 0.949997L6.7625 1.6125L7.1 1.275L6.575 0.762497L7.2 0.137497L6.9125 -0.137503L8.475 -1.55H8.525ZM8.525 1.275V3.55L8.15 3.175V2.7H7.775L7.4375 2.4125L7.775 2.125H8.15V1.6625L8.525 1.275ZM5.8875 2.0875L5.925 2.4125L5.8875 2.7L5.55 2.4125L5.8875 2.0875Z" fill="#383739"/>
<path d="M8.52505 -1.4625V-0.987502L7.48755 -0.137501L7.77505 0.149998L7.15005 0.762498L7.52505 1.0875V0.662499H8.01255V1.0375L6.77505 2.225H6.21255L6.12505 1.8875H6.58755L6.07505 1.425L4.98755 2.3625L6.07505 3.3125L6.55005 2.8375H6.12505L6.21255 2.55H6.77505L8.01255 3.6875V4.0625H7.53755V3.6L7.16255 4.025L7.77505 4.5875L7.48755 4.9125L8.43755 5.8125V6.2875L7.00005 4.875L7.28755 4.5875L6.62505 4.025L7.18755 3.5L6.72505 3.075L6.06255 3.7375L4.55005 2.3625L6.05005 0.987499L6.76255 1.6625L7.18755 1.2875L6.62505 0.762498L7.28755 0.137498L6.96255 -0.137501L8.52505 -1.4625ZM8.52505 1.375V3.45L8.20005 3.175V2.7H7.77505L7.52505 2.4125L7.77505 2.175H8.20005V1.7L8.52505 1.375ZM5.83755 2.175L5.88755 2.425V2.6L5.60005 2.4125L5.83755 2.175Z" fill="#FFC72C"/>
<path d="M8.52495 9.7375V10.4L7.58745 11.25L7.91245 11.5375L7.24995 12.1L7.53745 12.3875V12.0125H8.09995V12.475L6.82495 13.6H6.21245L6.07495 13.225H6.44995L6.07495 12.85L5.12495 13.7L6.07495 14.65L6.49995 14.225H6.12495L6.21245 13.8H6.83745L8.09995 14.975V15.45H7.49995V15.075L7.21245 15.3125L7.87495 15.925L7.54995 16.2125L8.49995 17.0625V17.675L6.92495 16.25L7.19995 15.925L6.58745 15.3L7.11245 14.8375L6.77495 14.4625L6.07495 15.125L4.51245 13.7L6.07495 12.2875L6.77495 12.95L7.11245 12.575L6.58745 12.1L7.21245 11.475L6.92495 11.2L8.48745 9.7875L8.52495 9.7375ZM8.52495 12.575V14.7875L8.14995 14.4625V13.9875H7.77495L7.43745 13.7L7.77495 13.375H8.14995V12.95L8.52495 12.575ZM5.88745 13.375L5.92495 13.6625L5.88745 13.9875L5.54995 13.6625L5.88745 13.375Z" fill="#383739"/>
<path d="M8.52505 9.7875V10.25L7.52505 11.2L7.82505 11.4875L7.20005 12.05L7.57505 12.425V11.9625H8.06255V12.425L6.82505 13.5125H6.26255L6.16255 13.1875H6.63755L6.07505 12.7625L4.98755 13.7L6.07505 14.7L6.55005 14.225H6.12505L6.21255 13.8875H6.77505L8.01255 15.075V15.45H7.53755V14.975L7.16255 15.35L7.77505 15.975L7.48755 16.25L8.43755 17.2V17.675L7.00005 16.25L7.28755 15.975L6.62505 15.35L7.18755 14.8875L6.72505 14.4125L6.06255 15.125L4.55005 13.7L6.05005 12.3875L6.76255 13.0375L7.18755 12.6125L6.62505 12.15L7.28755 11.525L6.96255 11.25L8.52505 9.7875ZM8.52505 12.6125V14.7375L8.20005 14.4125V13.9375H7.77505L7.52505 13.7L7.77505 13.425H8.20005V12.95L8.52505 12.6625V12.6125ZM5.83755 13.4625L5.88755 13.6625V13.8875L5.60005 13.6625L5.83755 13.4625Z" fill="#FFC72C"/>
<path d="M8.525 21.025V21.6L7.5875 22.45L7.9125 22.725L7.25 23.35L7.5375 23.625V23.25H8.1V23.725L6.825 24.85H6.2125L6.125 24.425H6.5L6.125 24.1L5.125 25L6.075 25.8875L6.5 25.5125H6.125L6.2125 25.0875H6.8375L8.1 26.275V26.75H7.5V26.375L7.2125 26.6L7.875 27.225L7.55 27.5L8.5 28.35V28.975L6.9375 27.55L7.2125 27.2125L6.6 26.6L7.125 26.125L6.7875 25.75L6.0875 26.4125L4.5 25L6.0625 23.575L6.7625 24.2L7.1 23.8625L6.575 23.3875L7.2 22.725L6.9125 22.45L8.475 21.025H8.525ZM8.525 23.8625V26.0875L8.15 25.7125V25.275H7.775L7.4375 25L7.775 24.6625H8.15V24.25L8.525 23.8625ZM5.8875 24.6625L5.925 24.95L5.8875 25.275L5.55 24.95L5.8875 24.6625Z" fill="#383739"/>
<path d="M8.52505 21.075V21.55L7.52505 22.4875L7.82505 22.7375L7.20005 23.3375L7.57505 23.7125V23.25H8.06255V23.675L6.82505 24.8H6.26255L6.16255 24.475H6.63755L6.12505 24L5.03755 24.95L6.12505 25.95L6.58755 25.4625H6.16255L6.26255 25.1375H6.82505L8.06255 26.2625V26.7H7.58755V26.225L7.21255 26.6L7.82505 27.225L7.53755 27.5L8.48755 28.45V28.9125L7.06255 27.5L7.35005 27.2125L6.68755 26.6L7.25005 26.125L6.77505 25.6625L6.12505 26.3625L4.61255 24.95L6.11255 23.625L6.82505 24.2875L7.25005 23.8625L6.68755 23.3875L7.35005 22.725L7.01255 22.45L8.52505 21.075ZM8.52505 23.9125V26.0375L8.20005 25.7V25.25H7.77505L7.52505 25L7.77505 24.725H8.20005V24.25L8.52505 23.975V23.9125ZM5.83755 24.7625L5.88755 24.95V25.1875L5.60005 24.9375L5.83755 24.7625Z" fill="#FFC72C"/>
<path d="M8.5249 32.325V32.8875L7.5874 33.7375L7.9124 34.025L7.2499 34.6375L7.5374 34.875V34.5H8.0999V34.9625L6.8249 36.15H6.2124L6.1249 35.725H6.4999L6.1249 35.35L5.1249 36.2875L6.0749 37.1875L6.4999 36.8125H6.1249L6.2124 36.3875H6.8374L8.0999 37.5625V38.0375H7.4999V37.6125L7.2124 37.8875L7.8749 38.5125L7.5499 38.7875L8.4999 39.6375V40.2125L6.9374 38.7875L7.2124 38.5125L6.5999 37.8875L7.1249 37.375L6.7874 37.0375L6.0874 37.7L4.5249 36.2875L6.0874 34.875L6.7874 35.4875L7.1249 35.15L6.5999 34.6375L7.2249 34.0125L6.9374 33.7375L8.5249 32.325ZM8.5249 35.15V37.375L8.1499 37V36.575H7.7749L7.4374 36.2375L7.7749 35.9625H8.1499V35.4875L8.5249 35.15ZM5.8874 35.9625L5.9249 36.2375L5.8874 36.525L5.5499 36.2375L5.8874 35.9625Z" fill="#383739"/>
<path d="M8.52505 32.375V32.8375L7.50005 33.75L7.78755 34.0375L7.16255 34.65L7.53755 35.025V34.55H8.02505V34.975L6.78755 36.1H6.22505L6.13755 35.775H6.60005L6.08755 35.3125L5.00005 36.25L6.08755 37.25L6.56255 36.775H6.12505L6.21255 36.4375H6.77505L8.01255 37.575V38H7.53755V37.525L7.16255 37.9L7.77505 38.525L7.48755 38.8L8.43755 39.75V40.175L7.00005 38.75L7.28755 38.5L6.62505 37.8875L7.18755 37.375L6.72505 36.95L6.06255 37.6125L4.55005 36.2375L6.05005 34.8625L6.76255 35.5375L7.18755 35.1625L6.62505 34.6375L7.28755 34.0125L6.96255 33.7375L8.52505 32.375ZM8.52505 35.2V37.325L8.20005 37.0375V36.575H7.77505L7.52505 36.2875L7.77505 36.05H8.20005V35.575L8.52505 35.25V35.2ZM5.83755 36L5.88755 36.25V36.475L5.60005 36.2375L5.83755 36Z" fill="#FFC72C"/>
<path d="M-5.6501 -1.4625L-6.9751 -2.25V-4.15L-5.6501 -4.9625V-6L-4.4626 -6.7H-3.4626L-1.5876 -7.7875H2.3874L4.2749 -6.7H5.2249L6.5499 -6V-4.9625L7.8249 -4.15V-2.275L6.5499 -1.4625V-0.462498L5.3124 0.287502H4.3124L2.4374 1.325H-1.5376L-3.4251 0.287502H-4.3751L-5.7001 -0.462498L-5.6501 -1.4625Z" fill="#383739"/>
<path d="M-1.58755 -7.75L-3.46255 -6.6625H-4.41255L-5.65005 -5.95V-4.95L-6.92505 -4.15V-2.275L-5.65005 -1.5125V-0.4625L-4.41255 0.2375H-3.47505L-1.58755 1.275H2.38745L4.27495 0.2375H5.22495L6.44995 -0.4625V-1.5125L7.72495 -2.2625V-4.15L6.44995 -4.9625V-5.95L5.22495 -6.6625H4.27495L2.38745 -7.75H-1.58755ZM-1.48755 -7.325H2.28745L4.18745 -6.275H5.12495L6.07495 -5.7625V-4.725L7.34995 -3.9125V-2.5L6.02495 -1.7V-0.7L5.12495 -0.1375H4.18745L2.28745 0.9H-1.48755L-3.37505 -0.125H-4.32505L-5.27505 -0.6875V-1.6875L-6.55005 -2.5V-3.9125L-5.22505 -4.725V-5.75L-4.27505 -6.2625H-3.33755L-1.48755 -7.325Z" fill="#00843D"/>
<path d="M0.4 -3.2125V-7.325H-1.4875L-3.3375 -6.2375H-4.275L-5.225 -5.7625V-4.725L-6.5 -3.9125V-3.25H0.4V0.850003H2.2875L4.1875 -0.187497H5.125L5.975 -0.699997V-1.75L7.3 -2.55V-3.2125H0.4Z" fill="#FFC72C"/>
<path d="M-6.5 -3.2125V-2.55L-5.175 -1.75V-0.700001L-4.325 -0.237502H-3.325L-1.45 0.849998H0.4V-3.25H7.3V-3.9125L5.975 -4.725V-5.6625L5.125 -6.25H4.1875L2.2875 -7.3375H0.4125V-3.2125H-6.5Z" fill="white"/>
<path d="M0.4 0.900001H-0.4L-0.825001 0.475002H-1.675L-2.25 0.187501L-2.1 -0.187499L-1.5875 0.100002H-1.3375L-0.5 -0.849998L0.450001 -0.274998L0.4 0.900001Z" fill="#383739"/>
<path d="M-4.08745 -1.175L-3.79995 -1.4625L-4.04995 -1.6L-4.32495 -1.325L-4.08745 -1.175ZM-3.37495 -1.225V-1.65L-2.62495 -2.3625L-2.81245 -2.55L-3.56245 -1.8375H-4.31245L-3.37495 -1.225ZM0.400048 0.850005H-0.399951L-0.824952 0.425005H-1.62495L-2.19995 0.150004L-2.09995 -0.0999956L-1.62495 0.150004H-1.29995L-0.499951 -0.799995L0.400048 -0.274995V0.850005Z" fill="#D22630"/>
<path d="M0.399902 0.900001H1.1999L1.6749 0.475002H2.4749L3.0999 0.187501L2.9499 -0.187499L2.3874 0.100002H2.1499L1.2999 -0.849998L0.399902 -0.274998V0.900001Z" fill="#383739"/>
<path d="M4.8874 -1.175L4.6124 -1.4625L4.8374 -1.6L5.1249 -1.325L4.8874 -1.175ZM4.1874 -1.225V-1.65L3.4249 -2.3625L3.6124 -2.55L4.3624 -1.8375H5.1249L4.1874 -1.225ZM0.399902 0.850005H1.1999L1.6249 0.425005H2.4374L2.9999 0.150004L2.8999 -0.0999956L2.4374 0.150004H2.1499L1.2999 -0.799995L0.399902 -0.274995V0.850005Z" fill="#D22630"/>
<path d="M-4.88755 -2.3625L-5.07505 -2.55V-2.625L-5.55005 -3.2L-5.07505 -3.7625V-3.875L-4.88755 -4.0625L-4.46255 -3.725H-4.71255L-4.37505 -3.4H-3.62505L-3.00005 -3.875V-5.1H-1.53755L0.212451 -6.1875V-6.4625L-0.0750494 -6.6125L-0.400048 -6.3625V-6.2375L-0.650048 -6.5625L-0.162549 -6.9375L0.349952 -7.275H0.537452L1.01245 -6.9375H1.11245L1.58745 -6.5625L1.33745 -6.2375L1.29995 -6.3625L0.962451 -6.6125H0.874951L0.587451 -6.425V-6.125L2.33745 -5.0375H3.84995V-3.8125L4.41245 -3.3375H5.16245L5.49995 -3.6625H5.31245L5.68745 -4L5.88745 -3.8125V-3.7125L6.34995 -3.15L5.88745 -2.5875V-2.4875L5.68745 -2.3L5.31245 -2.625H5.49995L5.17495 -2.9625H4.42495L3.84995 -2.4875V-1.2625H2.28745L0.537452 -0.225002V0.0624986L0.824952 0.249999H0.874951L1.19995 0.0624986V-0.0750012L1.44995 0.249999L1.01245 0.587498H0.962451L0.449952 0.962498H0.249951L-0.225049 0.587498H-0.325049L-0.787549 0.212498L-0.512549 -0.0750012V0.0624986L-0.175048 0.249999H-0.125049L0.149951 0.0624986V-0.225002L-1.60005 -1.2625H-3.06255V-2.5L-3.67505 -2.975H-4.42505L-4.75005 -2.625H-4.51255L-4.88755 -2.3625Z" fill="#383739"/>
<path d="M0.4 0.25L0.637501 0.375L0.4 0.525V0.25ZM-0.1625 0.475L0.3125 0.85H0.4V0.575L0.125 0.375L0.4125 0.175V-0.375L-1.475 -1.5H-2.85V-2.6375L-3.55 -3.2125H-4.6375L-4.8875 -2.875L-5.1625 -3.2125H-5.5L-5.0375 -2.6875V-2.6L-4.8875 -2.4L-4.6125 -2.65H-4.7375V-2.6875L-4.4125 -3.0625H-3.6125L-2.95 -2.6V-1.3625H-1.5375L0.262501 -0.275V0.0500002L-0.0249996 0.2375H-0.1625L-0.450001 0.0500002V-0.0375004L-0.637501 0.15L-0.262501 0.475H-0.1625ZM-4.8875 -3.4875L-4.7 -3.25H-5.125L-4.8875 -3.4875ZM0.4 -6.9375L0.2125 -6.8L0.4 -6.6625V-6.9375ZM5.5 -3.1625L5.6875 -2.975L5.9375 -3.2125L5.5 -3.1625ZM0.9625 -6.9375L0.5 -7.3125H0.4V-7.0375L0.6875 -6.7875L0.4 -6.6125V-6.125L2.2875 -5H3.6625V-3.7625L4.375 -3.25H5.4625L5.6875 -3.5375L5.975 -3.25H6.3125L5.8375 -3.725V-3.875L5.6875 -4L5.4125 -3.775H5.55L5.225 -3.35H4.4125L3.8 -3.825V-5.1H2.3L0.549999 -6.1375V-6.4625L0.825001 -6.6625H0.9625L1.25 -6.4625V-6.375L1.4375 -6.6125L1.0625 -6.9375H0.9625Z" fill="#FFC72C"/>
<path d="M0.4 0.525L0.2125 0.3875L0.4 0.2375V0.525ZM-4.7 -3.2125L-4.8875 -2.9625L-5.1375 -3.2125H-4.7ZM0.9625 0.475L0.5 0.85H0.4V0.575L0.6875 0.3875L0.4 0.1875V-0.375L2.2875 -1.5H3.6625V-2.6375L4.375 -3.2125H5.4625L5.6875 -2.875L5.975 -3.2125H6.3125L5.8375 -2.6875V-2.6L5.6875 -2.4L5.4125 -2.65H5.55V-2.6875L5.225 -3.0625H4.4125L3.8 -2.6V-1.3625H2.3L0.5 -0.275V0.0500002L0.775 0.2375H0.924999L1.2 0.0500002V-0.0375004L1.3875 0.15L1.0125 0.475H0.9625ZM5.6875 -3.4875L5.5 -3.25H5.925L5.6875 -3.4875ZM-0.1625 -6.9375L0.3125 -7.3125H0.4V-7.0375L0.112499 -6.7875L0.4 -6.6125V-6.125L-1.4875 -5H-2.8625V-3.7625L-3.5625 -3.2875H-4.65L-4.9 -3.575L-5.175 -3.2875H-5.5L-5.0375 -3.7625V-3.9L-4.8875 -4.05L-4.6125 -3.8H-4.7375L-4.4125 -3.3875H-3.6125L-2.95 -3.8625V-5.0875H-1.5375L0.3125 -6.125V-6.45L0.0249996 -6.65H-0.125L-0.4125 -6.45V-6.3625L-0.6 -6.6L-0.225 -6.925H-0.125L-0.1625 -6.9375ZM0.4 -6.6125L0.637501 -6.75L0.4 -6.8875V-6.6125Z" fill="white"/>
<path d="M3.7999 11.8625V11.3H5.4124V10.675H6.9749V5.4375H5.4124V4.8125H3.7999V4.25H2.1999V3.6875H-1.4001V4.25H-3.0001V4.825H-4.6251V5.4375H-6.1626V10.6875H-4.6251V11.3375H-3.0001V11.8125H-1.4001V12.3875H2.1999V11.8125L3.7999 11.8625Z" fill="#383739"/>
<path d="M-1.34995 3.7375V4.25H-2.91245V4.825H-4.49995V5.4375H-6.07495V10.6375H-4.49995V11.2H-2.89995V11.825H-1.28745V12.3875H2.21255V11.8125H3.81255V11.25H5.42505V10.625H7.00005V5.4375H5.40005V4.875H3.70005V4.3H2.08755V3.75L-1.34995 3.7375ZM-0.874951 4.1625H1.72505V4.725H3.32505V5.3H4.93755V5.9125H6.55005V10.2125H4.93755V10.875H3.32505V11.3375H1.72505V11.9125H-0.924951V11.3375H-2.52495V10.875H-4.13745V10.25H-5.69995V5.9625H-4.12495V5.3375H-2.51245V4.725H-0.912452L-0.874951 4.1625Z" fill="#FFC72C"/>
<path d="M-2.43745 11.3375V10.775H-4.08745V10.2125H-5.69995V5.9625H-4.08745V5.3375H-2.43745V4.775H-0.824952V4.2125H1.72505V4.725H3.32505V5.3H4.93755V5.9125H6.55005V10.1625H4.93755V10.725H3.23755V11.35H1.62505V11.9625H-0.924951V11.3375H-2.43745Z" fill="#D22630"/>
<path d="M-2.1001 5.2L-2.5251 4.875V5.4875L-2.9001 5.725V5.35L-3.2751 5.725L-3.6626 5.35V5.725L-4.1376 5.475V6L-4.4626 6.2875V5.9625L-4.9376 6.2375L-5.3126 5.9625V6.2875L-5.7501 6V7.6625H-6.2251V8.5125H-5.7501V10.1625L-5.3251 9.875V10.25L-4.9001 9.925L-4.4751 10.25V9.875L-4.1501 10.1625V10.725L-3.6751 10.45V10.825L-3.3001 10.45L-2.9251 10.825V10.4L-2.5501 10.6375V11.25L-2.1126 10.9125V11.3375L-1.6876 10.9625L-1.3126 11.3375V10.875L-0.937597 11.15V11.8125L-0.362597 11.3V11.8625L0.387403 11.3875L1.1374 11.8625V11.3375L1.7124 11.8125V11.2L2.0874 10.9125V11.3375L2.4624 10.9625L2.9374 11.3375V10.875L3.3124 11.2V10.575L3.6874 10.35V10.725L4.0749 10.35L4.4499 10.725V10.4L4.9249 10.675V10.125L5.2499 9.8375V10.2125L5.7249 9.8875L6.0999 10.225V9.85L6.5374 10.125V8.525H6.9999V7.7125H6.5374V6.0625L6.1124 6.35V6L5.6749 6.2875L5.2499 6V6.3375L4.9249 6.05V5.5375L4.4499 5.7625V5.3875L4.0749 5.7625L3.6999 5.3875V5.7625L3.3249 5.5375V4.9125L2.8874 5.25V4.825L2.5124 5.2L2.0374 4.825V5.25L1.7124 4.9625V4.35L1.1499 4.825V4.25L0.399902 4.725L-0.362597 4.25V4.725L-0.937597 4.25V4.875L-1.3126 5.15V4.725L-1.6876 5.1L-2.1126 4.725L-2.1001 5.2Z" fill="#383739"/>
<path d="M-5.2751 6.375V6L-4.9001 6.2875L-4.5126 6V6.375L-4.1376 6.05V10.0625L-4.5126 9.7875V10.1125L-4.8876 9.825L-5.2626 10.1125V9.7875L-5.7001 10.0625V8.4125H-6.1626V7.7H-5.7001V6.05L-5.2751 6.375ZM-2.0501 4.875L-1.6751 5.2L-1.3501 4.875V5.3L-0.925097 4.9625V11.125L-1.3501 10.8375V11.2625L-1.6751 10.925L-2.0501 11.2625V10.8375L-2.4751 11.1625V5.025L-2.0501 5.3125V4.875ZM2.8624 4.875L2.5249 5.2L2.1499 4.875V5.3L1.7249 4.9625V11.125L2.1499 10.8375V11.2625L2.5249 10.925L2.8624 11.2625V10.8375L3.2874 11.1625V5.025L2.8624 5.3125V4.875ZM6.0749 6.375V6L5.6999 6.2875L5.3249 6V6.375L4.9374 6.05V10.0625L5.3124 9.7875V10.1125L5.6874 9.825L6.0624 10.1125V9.7875L6.4999 10.0625V8.4125H6.9749V7.7H6.4999V6.05L6.0749 6.375Z" fill="#00843D"/>
<path d="M-3.6249 5.4875L-3.2874 5.7625L-2.9499 5.4875V5.8125L-2.4749 5.5375V10.5875L-2.9499 10.3V10.675L-3.2874 10.35L-3.6124 10.675V10.3L-4.0874 10.5875V5.5375L-3.6124 5.8125L-3.6249 5.4875ZM-0.312403 4.8625L-0.874903 4.4V11.775L-0.312403 11.25V11.8125L0.400097 11.3375L1.1126 11.8125V11.2L1.6751 11.675V4.45L1.1126 4.9125V4.25L0.400097 4.725L-0.312403 4.25V4.8625ZM4.4126 5.4875L4.0876 5.7625L3.7626 5.4875V5.8125L3.2876 5.5375V10.5875L3.7626 10.3V10.675L4.0876 10.35L4.4626 10.675V10.3L4.8876 10.5875V5.5375L4.4126 5.8125V5.4875Z" fill="#FFC72C"/>
<path d="M5.8749 7.325L5.6874 7.425C5.6499 7.425 5.5999 7.425 5.5624 7.325C5.3624 7.18749 5.3624 6.89999 5.3624 6.71249L5.5999 6.95L5.6874 6.71249L5.8374 6.95L6.0249 6.71249C6.0249 6.89999 6.0249 7.18749 5.8874 7.33749L5.8749 7.325ZM4.2249 6.89999L4.3249 6.7625V6.5125L4.6124 6.8125L4.1374 7.27499L3.5624 6.8125L3.8499 6.52499V6.7625L3.9874 6.89999V6.425L3.7624 6.2375L4.0874 5.96249L4.4124 6.2375L4.2249 6.4875V6.89999ZM2.6249 6.425L2.7124 6.2875V6L3.0499 6.2875L2.5249 6.8125L1.9624 6.33749L2.2874 6V6.2875L2.3874 6.3875V5.9125L2.1999 5.7625L2.5249 5.4875L2.8624 5.7625L2.6124 5.96249L2.6249 6.425Z" fill="#383739"/>
<path d="M5.68731 6.8125L5.59981 7L5.41231 6.8125C5.41231 7.0375 5.4623 7.2375 5.5498 7.275C5.5674 7.29601 5.5894 7.31291 5.61423 7.32451C5.63907 7.3361 5.66615 7.34211 5.69356 7.34211C5.72097 7.34211 5.74804 7.3361 5.77288 7.32451C5.79771 7.31291 5.81971 7.29601 5.83731 7.275C5.92481 7.2375 5.97481 7.0375 5.97481 6.8125L5.83731 7L5.68731 6.8125ZM2.43731 5.9125V6.525L2.24981 6.2875V6.15L2.0498 6.3375L2.52481 6.8125L2.99981 6.3375L2.76231 6.15V6.3375L2.57481 6.575V5.95L2.76231 5.825L2.52481 5.575L2.24981 5.825L2.43731 5.9125Z" fill="white"/>
<path d="M4.03735 6.425V7L3.84985 6.8125V6.6125L3.66235 6.8125L4.13735 7.27499L4.61235 6.8125L4.36235 6.6125V6.8125L4.18735 7V6.425L4.37485 6.2375L4.08735 6.05L3.84985 6.2375L4.03735 6.425Z" fill="#D22630"/>
<path d="M1.0125 6.625L0.875 6.3375L1.3 5.9625L0.875 5.625V5.8625L0.737499 6V5.5375L1.1125 5.2875L0.4 4.725L-0.3125 5.2L0.0625 5.5375V5.9625L-0.0625 5.8125V5.575L-0.5 5.9125L-0.0249996 6.2875L-0.2125 6.525L1.0125 6.625Z" fill="#383739"/>
<path d="M-0.125195 6.575L0.0248051 6.325L-0.450195 5.95L-0.112694 5.725V5.8625L0.112305 6.1V5.5375L-0.212694 5.2875L0.412306 4.825L1.01231 5.3L0.687305 5.5375V6.15L0.924805 5.9V5.775L1.24981 6L0.774805 6.375L0.962305 6.625L-0.125195 6.575Z" fill="#D22630"/>
<path d="M0.0749512 5.3L0.39995 5.5375L0.73745 5.2875L0.39995 5.0625L0.0749512 5.3Z" fill="#383739"/>
<path d="M0.399853 5.1125L0.637354 5.3L0.399853 5.4375L0.162354 5.3L0.399853 5.1125Z" fill="#00843D"/>
<path d="M5.8749 8.7875C5.85227 8.75972 5.82365 8.73742 5.79118 8.72226C5.75871 8.70711 5.72323 8.6995 5.6874 8.70001C5.6499 8.70001 5.5999 8.7 5.5624 8.7875C5.3624 8.9375 5.3624 9.2125 5.3624 9.4125L5.5999 9.2125L5.6874 9.4L5.8374 9.2125L6.0249 9.4C6.0249 9.2125 6.0249 8.9375 5.8874 8.7875H5.8749ZM4.2249 9.2125L4.3249 9.3625V9.6L4.6124 9.3125L4.1374 8.8375L3.5624 9.3125L3.8499 9.6V9.35L3.9874 9.225V9.6875L3.7624 9.875L4.0874 10.1625L4.4124 9.875L4.2249 9.63751V9.2125ZM2.6249 9.6875L2.7124 9.82501V10.1125L3.0499 9.82501L2.5249 9.3125L1.9624 9.82501L2.2874 10.1125V9.82501L2.3874 9.7375V10.2125L2.1999 10.35L2.5249 10.6375L2.8624 10.35L2.6124 10.1625L2.6249 9.6875Z" fill="#383739"/>
<path d="M5.68731 9.3125L5.59981 9.125L5.41231 9.3125C5.41231 9.075 5.4623 8.8875 5.5498 8.8375C5.5674 8.81649 5.5894 8.79959 5.61423 8.78799C5.63907 8.77639 5.66615 8.77039 5.69356 8.77039C5.72097 8.77039 5.74804 8.77639 5.77288 8.78799C5.79771 8.79959 5.81971 8.81649 5.83731 8.8375C5.92481 8.8875 5.97481 9.075 5.97481 9.3125L5.83731 9.125L5.68731 9.3125ZM2.43731 10.2125V9.5875L2.24981 9.8375V10.025L2.0498 9.825L2.52481 9.3625L2.99981 9.825L2.76231 10.025V9.825L2.57481 9.6V10.2125L2.76231 10.35L2.52481 10.5875L2.24981 10.35L2.43731 10.2125Z" fill="white"/>
<path d="M4.03735 9.6875V9.125L3.84985 9.3125V9.5L3.66235 9.3125L4.13735 8.8375L4.61235 9.3125L4.36235 9.5V9.3125L4.18735 9.125V9.6875L4.37485 9.875L4.08735 10.0625L3.84985 9.875L4.03735 9.6875Z" fill="#D22630"/>
<path d="M1.0125 9.55L0.875 9.7875L1.3 10.1625L0.875 10.4875V10.25L0.737499 10.125V10.5875L1.1125 10.825L0.4 11.3375L-0.3125 10.875L0.0625 10.5375V10.125L-0.0625 10.2625V10.5125L-0.5 10.175L-0.0249996 9.8L-0.2125 9.55H1.0125Z" fill="#383739"/>
<path d="M-0.125195 9.60001L0.0248051 9.78751L-0.450195 10.1625L-0.112694 10.4V10.25L0.112305 10.025V10.5875L-0.212694 10.825L0.412306 11.3L1.01231 10.825L0.687305 10.575V10.025L0.924805 10.25V10.4L1.24981 10.15L0.774805 9.77501L0.962305 9.60001H-0.125195Z" fill="#D22630"/>
<path d="M0.0749512 10.875L0.39995 10.5875L0.73745 10.825L0.39995 11.0625L0.0749512 10.875Z" fill="#383739"/>
<path d="M0.399853 11L0.637354 10.825L0.399853 10.675L0.162354 10.825L0.399853 11Z" fill="#00843D"/>
<path d="M6.0749 7.8H5.4124V7.5625H3.2374L1.7249 6.6125H-0.925097L-2.4251 7.5625H-4.6251V7.85H-5.2876V8.325H-4.6251V8.65H-2.4501L-0.937597 9.6H1.7124L3.2124 8.65H5.3999V8.3625H6.0624L6.0749 7.8Z" fill="#383739"/>
<path d="M-0.925097 6.625L-2.4251 7.5625H-4.5501V7.85H-5.2251V8.275H-4.5626V8.55H-2.4376L-0.925097 9.5H1.7249L3.2249 8.55H5.3749V8.275H6.0874V7.85H5.3749V7.5625H3.2499L1.7374 6.6125L-0.925097 6.625ZM-0.925097 6.75H1.6749L3.0999 7.6625V7.7875H4.5999V8.3625H3.0499V8.5125L1.6749 9.3625H-0.875097L-2.2876 8.5125V8.3625H-3.8001V7.8H-2.2501V7.6625L-0.925097 6.75Z" fill="#D22630"/>
<path d="M1.675 6.75L3 7.7V7.8H4.5625V8.275H3V8.4625L1.675 9.3625H-0.875L-2.2 8.4625V8.325H-3.75V7.85H-2.1875V7.6625L-0.875 6.75H1.675Z" fill="#D22630"/>
<path d="M-1.5374 8.55L-0.974903 9.025L-0.599903 8.7L-0.774902 8.55L-0.974903 8.65L-1.0999 8.55L1.0626 6.9H0.637598L-1.5374 8.55ZM-0.262403 9.2125H0.162598L2.3376 7.5625L1.7751 7.0875L1.4001 7.425L1.6251 7.5625L1.7751 7.4625L1.9126 7.5625L-0.262403 9.2125ZM0.687597 9.2125H1.0626L-1.1124 7.5625L-0.974903 7.4625L-0.774902 7.5625L-0.587402 7.425L-0.962402 7.1375L-1.5374 7.5625L0.687597 9.2125ZM1.9126 8.55L1.7751 8.65L1.6251 8.55L1.3876 8.7L1.7626 8.975L2.3376 8.55L0.162598 6.9H-0.312403L1.9126 8.55ZM-1.9624 8.0875L-1.5874 8.325L-1.2124 8.075L-1.5874 7.8L-1.9624 8.0875ZM0.0250969 8.0375L0.400097 8.325L0.775097 8.075L0.400097 7.8L0.0250969 8.0375ZM2.7751 8.0375L2.3876 8.325L2.0126 8.075L2.3876 7.8L2.7751 8.0375Z" fill="#383739"/>
<path d="M2.28769 8.55L1.77519 8.925L1.43769 8.70001L1.62519 8.60001L1.77519 8.70001L1.96269 8.55L-0.162306 6.95H0.162695L2.28769 8.55ZM0.962694 9.175H0.637695L-1.4873 7.5625L-0.974806 7.1875L-0.637306 7.425L-0.774805 7.51251L-0.974806 7.425L-1.16231 7.5625L0.962694 9.175ZM0.162695 9.175H-0.162306L1.96269 7.5625L1.77519 7.425L1.62519 7.51251L1.43769 7.425L1.77519 7.175L2.25019 7.5625L0.162695 9.175ZM0.637695 6.95H0.962694L-1.16231 8.55L-0.974806 8.70001L-0.774805 8.60001L-0.649805 8.70001L-0.974806 8.9375L-1.43731 8.5625L0.637695 6.95Z" fill="#FFC72C"/>
<path d="M-1.58735 7.85001L-1.29985 8.08751L-1.58735 8.27501L-1.91235 8.08751L-1.58735 7.85001ZM0.412647 7.85001L0.737646 8.08751L0.400146 8.27501L0.0751476 8.08751L0.412647 7.85001ZM2.38765 7.85001L2.10015 8.08751L2.38765 8.27501L2.71265 8.08751L2.38765 7.85001Z" fill="#00843D"/>
<path d="M-6.4499 18.9L-6.5874 19.1375L-6.3124 19.325L-6.5874 19.5625L-6.4499 19.75L-6.1249 19.8L-5.8374 19.5625L-5.0374 20.0375V19.6625L-5.4999 19.325L-5.0374 19.0375V18.625L-5.8374 19.1L-6.1249 18.9125L-6.4499 18.9ZM-6.4499 17.4875L-6.5874 17.725L-6.3124 17.9125L-6.5874 18.15L-6.4499 18.3375L-6.1249 18.3875L-5.8374 18.1375L-5.0374 18.6125V18.2375L-5.4999 17.9125L-5.0374 17.625V17.2L-5.8374 17.675L-6.1249 17.4875H-6.4499ZM-6.4499 21.175L-6.5874 20.975L-6.3124 20.75L-6.5874 20.55L-6.4499 20.325H-6.1249L-5.8374 20.5125L-5.0374 20.0375V20.4625L-5.4999 20.75L-5.0374 21.075V21.45L-5.8374 20.975L-6.1249 21.225L-6.4499 21.175ZM7.2501 18.9L7.4001 19.1375L7.1126 19.325L7.4001 19.5625L7.2501 19.75L6.9251 19.8L6.6376 19.5625L5.8376 20.0375V19.6625L6.3126 19.325L5.8376 19.0375V18.625L6.6376 19.1L6.9251 18.9125L7.2501 18.9ZM7.2501 17.4875L7.4001 17.725L7.1126 17.9125L7.4001 18.15L7.2501 18.3375L6.9251 18.3875L6.6376 18.1375L5.8376 18.6125V18.2375L6.3126 17.9125L5.8376 17.625V17.2L6.6376 17.675L6.9251 17.4875H7.2501ZM7.2501 21.175L7.4001 20.975L7.1126 20.75L7.4001 20.55L7.2501 20.325H6.9251L6.6251 20.5L5.8251 20.025V20.45L6.3001 20.7375L5.8251 21.0625V21.4375L6.6251 20.9625L6.9126 21.2125L7.2501 21.175ZM4.1876 15.125V15.6875H4.6126V15.975H5.0376V15.5H4.6626V15.125H4.1876ZM5.4126 16.0625V16.5375H5.8876V16.775H6.2626V16.3H5.8876V16.0625H5.4126ZM-3.3749 15.125V15.6875H-3.7999V15.975H-4.2249V15.5H-3.8499V15.125H-3.3749ZM4.1876 23.625V23.0625H4.6126V22.8125H5.0376V23.3H4.6626V23.675L4.1876 23.625ZM-3.3749 23.625V23.0625H-3.7999V22.8125H-4.2249V23.3H-3.8499V23.675L-3.3749 23.625ZM5.4126 22.675V22.125H5.8876V21.8375H6.2626V22.3125H5.8876V22.6875L5.4126 22.675ZM-4.6249 16.0625V16.5375H-5.0874V16.775H-5.4624V16.3H-5.0874V16.0625H-4.6249ZM-4.6249 22.725V22.1625H-5.0874V21.875H-5.4624V22.35H-5.0874V22.725H-4.6249ZM2.0001 15.125L1.6626 14.7875L1.3376 15.075L1.6126 15.3625L1.2376 15.6875H1.7626L1.9501 15.5L2.1376 15.6875H2.7626L2.3751 15.375L2.6626 15.0875L2.3251 14.8L2.0001 15.125ZM0.387598 15.125L0.0625973 14.7875L-0.274902 15.075L0.012598 15.3625L-0.324903 15.6875H0.200098L0.387598 15.5L0.575098 15.6875H1.1001L0.762598 15.3625L1.0501 15.075L0.725098 14.7875L0.387598 15.125ZM-1.1749 15.125L-0.837402 14.7875L-0.549902 15.075L-0.837402 15.3625L-0.462402 15.6875H-0.987402L-1.1749 15.5L-1.3624 15.6875H-1.9749L-1.5999 15.3625L-1.8749 15.075L-1.5499 14.7875L-1.2124 15.125H-1.1749ZM1.9501 23.625L1.6626 24L1.3376 23.675L1.6126 23.4375L1.2376 23.0625H1.7626L1.9501 23.25L2.1376 23.0625H2.7626L2.3751 23.4375L2.6626 23.675L2.3251 24L1.9501 23.625ZM0.387598 23.625L0.0625973 24L-0.274902 23.675L0.012598 23.4375L-0.324903 23.0625H0.200098L0.387598 23.25L0.575098 23.0625H1.1001L0.762598 23.4375L1.0501 23.675L0.725098 24L0.387598 23.625ZM-1.1749 23.625L-0.837402 24L-0.549902 23.675L-0.837402 23.4375L-0.462402 23.0625H-0.987402L-1.1749 23.25L-1.3624 23.0625H-1.9749L-1.5999 23.4375L-1.8749 23.675L-1.5499 24L-1.2124 23.675L-1.1749 23.625Z" fill="#383739"/>
<path d="M-5.07505 19.6625V19.9875L-5.82505 19.5125L-6.12505 19.7625H-6.40005L-6.55005 19.5625L-6.26255 19.325L-6.55005 19.1375L-6.40005 18.95H-6.12505L-5.83755 19.1875L-5.08755 18.7125V19L-5.60005 19.325L-5.07505 19.6625ZM-5.07505 18.2375V18.575L-5.82505 18.1L-6.12505 18.3375H-6.40005L-6.55005 18.15L-6.26255 17.9L-6.55005 17.725L-6.40005 17.5375H-6.12505L-5.83755 17.7625L-5.08755 17.3V17.575L-5.60005 17.9125L-5.07505 18.2375ZM-5.07505 20.4125V20.125L-5.82505 20.6L-6.12505 20.325H-6.40005L-6.55005 20.5125L-6.25005 20.75L-6.53755 20.975L-6.38755 21.125H-6.12505L-5.83755 20.9375L-5.08755 21.4V21.075L-5.60005 20.75L-5.07505 20.4125ZM5.88745 19.6625V19.9875L6.63745 19.5125L6.97495 19.7625H7.19995L7.34995 19.5625L7.06245 19.325L7.34995 19.1375L7.19995 18.95H7.01245L6.68745 19.1875L5.93745 18.7125V19L6.44995 19.325L5.88745 19.6625ZM5.88745 18.2375V18.575L6.63745 18.1L6.97495 18.3375H7.19995L7.34995 18.15L7.06245 17.9L7.34995 17.725L7.19995 17.5375H7.01245L6.68745 17.7625L5.93745 17.3V17.575L6.44995 17.9125L5.88745 18.2375ZM5.88745 20.4125V20.125L6.63745 20.6L6.97495 20.325H7.19995L7.34995 20.5125L7.06245 20.75L7.34995 20.975L7.19995 21.125H7.01245L6.68745 20.9375L5.93745 21.4V21.075L6.44995 20.75L5.88745 20.4125ZM4.64995 15.125V15.5H5.02495V15.875H4.64995V15.6H4.18745V15.125H4.64995ZM5.92495 16.0625V16.4H6.26245V16.775H5.92495V16.5375H5.49995V16.0625H5.92495ZM-3.85005 15.125V15.5H-4.22505V15.875H-3.90005V15.6H-3.42505V15.125H-3.85005ZM4.64995 23.575V23.15H5.02495V22.775H4.64995V23.0125H4.18745V23.4875L4.64995 23.575ZM-3.76255 23.575V23.15H-4.13755V22.775H-3.80005V23.0125H-3.33755V23.4875L-3.76255 23.575ZM5.92495 22.6375V22.2625H6.26245V21.8875H5.92495V22.1625H5.49995V22.6375H5.92495ZM-5.03755 16.0625V16.4375H-5.41255V16.8125H-5.07505V16.5375H-4.65005V16.0625H-5.03755ZM-5.03755 22.6875V22.3125H-5.41255V21.925H-5.07505V22.2125H-4.65005V22.675L-5.03755 22.6875ZM1.67495 14.8375L1.96245 15.175L2.28745 14.8375L2.57495 15.075L2.28745 15.3625L2.62495 15.6375H2.14995L1.96245 15.45L1.77495 15.6375H1.34995L1.67495 15.3625L1.38745 15.075L1.67495 14.8375ZM0.0749521 14.8375L0.399951 15.175L0.737451 14.8375L0.962451 15.075L0.687451 15.3625L1.01245 15.6375H0.587451L0.399951 15.45L0.212451 15.6375H-0.262549L0.112451 15.3625L-0.162549 15.075L0.0749521 14.8375ZM-0.875049 14.8375L-1.16255 15.175L-1.48755 14.8375L-1.77505 15.075L-1.48755 15.3625L-1.77505 15.6375H-1.40005L-1.15005 15.45L-0.975049 15.6375H-0.537549L-0.875049 15.375L-0.587548 15.0875L-0.875049 14.8375ZM1.67495 23.9125L1.96245 23.625L2.28745 23.9125L2.57495 23.6625L2.28745 23.4375L2.62495 23.1125H2.14995L1.96245 23.3L1.77495 23.1125H1.34995L1.67495 23.4375L1.38745 23.675L1.67495 23.9125ZM0.0749521 23.9125L0.399951 23.625L0.737451 23.9125L0.962451 23.6625L0.687451 23.4375L1.01245 23.1125H0.587451L0.399951 23.3L0.212451 23.1125H-0.262549L0.112451 23.4375L-0.162549 23.675L0.0749521 23.9125ZM-0.875049 23.9125L-1.16255 23.625L-1.48755 23.9125L-1.77505 23.6625L-1.48755 23.4375L-1.77505 23.1125H-1.40005L-1.15005 23.3L-0.975049 23.1125H-0.537549L-0.875049 23.4375L-0.587548 23.675L-0.875049 23.9125Z" fill="#00843D"/>
<path d="M-3.84995 22.1625V23.1125H4.65005V22.1625H5.88755V16.5375H4.65005V15.6H-3.84995V16.5375H-5.07495V22.1625H-3.84995Z" fill="#383739"/>
<path d="M-3.8001 15.6375V16.5875H-5.0376V22.1125H-3.8501V23.0625H4.6499V22.1125H5.8874V16.5375H4.6499V15.6H-3.8501L-3.8001 15.6375ZM-3.2376 16.0125H4.0374V16.9125L4.3749 17.1125H5.4999V21.55H4.3749L4.0374 21.7875V22.675H-3.2376V21.75L-3.5626 21.5625H-4.7001V17.125H-3.5751L-3.2376 16.925V15.9875V16.0125Z" fill="#FFC72C"/>
<path d="M-3.1876 16.0625V16.875L-2.1001 16.0625H-3.1876ZM2.9499 16.0625L3.9874 16.875V16.0625H2.9499ZM-4.6126 17.15V17.9625L-3.6126 17.2125L-4.6126 17.15ZM4.4124 17.15L5.4624 17.9625V17.15H4.4124ZM5.4624 20.75L4.4124 21.5H5.4624V20.75ZM-4.6626 20.75V21.5H-3.6126L-4.6626 20.75ZM-3.2376 21.825V22.6375H-2.1126L-3.2376 21.825ZM3.9874 21.825L2.8999 22.6375H3.9874V21.825Z" fill="#D22630"/>
<path d="M2.8626 16.0625L5.4626 17.9625V20.7L2.8626 22.575H-2.0499L-4.6499 20.7V17.95L-2.0499 16.025L2.8626 16.0625Z" fill="#00843D"/>
<path d="M-4.03745 20.975L-4.32495 20.65L-4.03745 20.325L-4.32495 19.9875L-4.03745 19.6625L-4.32495 19.325L-4.03745 19L-4.32495 18.6625L-4.03745 18.3375L-4.32495 18.05L-4.03745 17.675H4.83755L5.12505 18.05L4.83755 18.3375L5.12505 18.6625L4.83755 19L5.12505 19.325L4.83755 19.6625L5.12505 19.9875L4.83755 20.325L5.12505 20.65L4.83755 20.975H-4.03745ZM2.10005 16.4875L1.72505 16.1625L1.38755 16.45L1.06255 16.1625L0.737548 16.45L0.400048 16.1625L0.0750494 16.45L-0.262452 16.1625L-0.587451 16.45L-0.924951 16.1625L-1.24995 16.4875V22.1625L-0.924951 22.4875L-0.587451 22.2125L-0.262452 22.4875L0.0750494 22.2125L0.400048 22.4875L0.737548 22.2125L1.06255 22.4875L1.38755 22.2125L1.72505 22.4875L2.05005 22.2125L2.10005 16.4875Z" fill="#383739"/>
<path d="M1.3499 16.5375L1.0624 16.25L0.737402 16.5V22.1625L1.0624 22.45L1.3499 22.1625V16.5375ZM0.0749035 16.5375L-0.262598 16.25L-0.537598 16.5V22.1625L-0.262598 22.45L0.0749035 22.1625V16.5375Z" fill="#FFC72C"/>
<path d="M-4.0001 20.975L-4.2751 20.65L-3.9876 20.3625H4.7999L5.0749 20.65L4.7999 20.975H-4.0001ZM4.7999 19.0375L5.0749 19.325L4.7999 19.6625H-4.0001L-4.2876 19.325L-4.0001 19.0375H4.7999ZM4.7999 18.3375L5.0749 18.05L4.7999 17.725H-4.0001L-4.2876 18.05L-4.0001 18.3375H4.7999Z" fill="#FFC72C"/>
<path d="M2.00015 16.5375L1.72515 16.25L1.38765 16.5V22.1625L1.72515 22.45L2.01265 22.1625L2.00015 16.5375ZM-0.537354 16.5375L-0.874853 16.25L-1.16235 16.5V22.1625L-0.874853 22.45L-0.537354 22.1625V16.5375Z" fill="#D22630"/>
<path d="M-3.9999 20.325L-4.2749 19.9875L-3.9874 19.7H4.8001L5.0751 19.9875L4.8001 20.325H-3.9999ZM-3.9999 19L-4.2749 18.6625L-3.9874 18.3875H4.8001L5.0751 18.6625L4.8001 19H-3.9999Z" fill="#D22630"/>
<path d="M0.737549 22.2125L0.400049 22.45L0.112549 22.1625V16.5375L0.400049 16.3L0.737549 16.55V22.2125Z" fill="#D22630"/>
<path d="M3.375 16.5875H-2.575V17.0625H-3.375V21.6H-2.625V22.0625H3.325V21.6H4.1875V17.0625H3.425V16.5875H3.375Z" fill="#383739"/>
<path d="M-2.5249 16.625V17.1125H-3.2749V21.55H-2.5249V22.025H-1.9624L-3.1874 20.975V17.675L-1.9624 16.6375H-2.5749L-2.5249 16.625ZM2.7251 16.625L3.9501 17.725V21.025L2.7626 21.975H3.3876V21.5H4.1376V17.0625H3.3876V16.5875H2.7626L2.7251 16.625Z" fill="#D22630"/>
<path d="M-1.8751 16.625L-3.1001 17.725V20.975L-1.8626 22.025H2.6749L3.8999 20.975V17.675L2.6749 16.6375L-1.8751 16.625ZM-1.7751 16.825H2.5749L3.7624 17.7625V20.8875L2.5749 21.825H-1.7751L-2.9501 20.8875V17.8125L-1.7751 16.825Z" fill="#00843D"/>
<path d="M-0.637648 20.9375L-0.450148 21.025L-0.400146 21.275L-0.650146 21.45L-0.262648 21.7875H-0.637648L-0.875147 21.5375L-1.11265 21.7875H-1.48765L-1.16265 21.45L-1.40015 21.2625V21.025L-1.15015 20.9375L-0.925146 21.125L-0.637648 20.9375ZM0.637354 20.9375L0.824854 21.025L0.874853 21.275L0.637354 21.45L1.01235 21.7875H0.637354L0.399853 21.5375L0.162354 21.7875H-0.162647L0.162354 21.45L-0.0751476 21.2625V21.025L0.174852 20.9375L0.399853 21.125L0.637354 20.9375ZM1.43735 20.9375L1.24985 21.025L1.19985 21.275L1.44985 21.45L1.11235 21.7875H1.43735L1.68735 21.5375L1.91235 21.7875H2.28735L1.91235 21.45L2.14985 21.2625V21.025L1.91235 20.9375L1.67485 21.125L1.43735 20.9375ZM-0.625147 17.75L-0.437647 17.6625L-0.387648 17.425L-0.637648 17.1875L-0.250147 16.8625H-0.625147L-0.862646 17.1L-1.10015 16.85H-1.47515L-1.15015 17.1875L-1.38765 17.425V17.6625L-1.13765 17.75L-0.912647 17.525L-0.625147 17.75ZM0.649853 17.75L0.837353 17.6625L0.887354 17.425L0.649853 17.1875L1.02485 16.8625H0.649853L0.412354 17.1L0.174852 16.85H-0.150146L0.174852 17.1875L-0.0626469 17.425V17.6625L0.187353 17.75L0.412354 17.525L0.649853 17.75ZM1.44985 17.75L1.26235 17.6625L1.21235 17.425L1.46235 17.1875L1.12485 16.8625H1.44985L1.69985 17.1L1.92485 16.85H2.29985L1.92485 17.1875L2.16235 17.425V17.6625L1.92485 17.75L1.68735 17.525L1.44985 17.75ZM3.72485 18.0875L3.53735 18.275L3.72485 18.4125V18.7L3.38735 18.4625L3.19985 18.65H2.96235L2.87485 18.4625L3.06235 18.275L2.87485 18.0875L2.96235 17.9H3.21235L3.38735 18.0875L3.72485 17.85V18.0875ZM3.72485 19.175L3.53735 19.3125L3.72485 19.5V19.75L3.38735 19.5L3.19985 19.6875H2.96235L2.87485 19.5L3.06235 19.3125L2.87485 19.125L2.96235 18.9875H3.21235L3.38735 19.125L3.72485 18.8875V19.175ZM3.72485 20.5875L3.53735 20.4L3.72485 20.2125V19.975L3.38735 20.2125L3.19985 20.025H2.96235L2.87485 20.2125L3.06235 20.4L2.87485 20.5875L2.96235 20.7375H3.21235L3.38735 20.5875L3.72485 20.8375V20.5875ZM-2.90015 18.0875L-2.65015 18.275L-2.90015 18.4125V18.7L-2.56265 18.4625L-2.37515 18.65H-2.13765L-2.03765 18.4625L-2.23765 18.275L-2.03765 18.0875L-2.13765 17.9H-2.37515L-2.56265 18.0875L-2.90015 17.85V18.0875ZM-2.90015 19.175L-2.65015 19.3125L-2.90015 19.5V19.75L-2.56265 19.5L-2.37515 19.6875H-2.13765L-2.03765 19.5L-2.23765 19.3125L-2.03765 19.125L-2.13765 18.9875H-2.37515L-2.56265 19.125L-2.90015 18.8875V19.175ZM-2.90015 20.5875L-2.65015 20.4L-2.90015 20.2125V19.975L-2.56265 20.2125L-2.37515 20.025H-2.13765L-2.03765 20.2125L-2.23765 20.4L-2.03765 20.5875L-2.13765 20.7375H-2.37515L-2.56265 20.5875L-2.90015 20.8375V20.5875Z" fill="#00843D"/>
<path d="M-1.77495 16.875L-2.86245 17.8125L-2.57495 18.0625L-2.38745 17.8625H-2.09995L-2.01245 18.1L-2.19995 18.2875L-2.01245 18.475L-2.09995 18.6625H-2.43745L-2.62495 18.525L-2.94995 18.7625V18.85L-2.62495 19.1L-2.43745 18.9L-2.14995 18.95L-2.04995 19.1375L-2.24995 19.325L-2.04995 19.5125L-2.14995 19.7625H-2.43745L-2.62495 19.5625L-2.94995 19.85V19.8875L-2.62495 20.175L-2.43745 19.9875H-2.14995L-2.04995 20.225L-2.24995 20.4125L-2.04995 20.6L-2.14995 20.7875H-2.43745L-2.62495 20.65L-2.91245 20.8875L-1.82495 21.825H-1.57495L-1.19995 21.45L-1.44995 21.2625V20.975L-1.16245 20.8875L-0.912452 21.075L-0.687451 20.8875L-0.437451 20.975L-0.399951 21.2625L-0.649951 21.45L-0.262452 21.7875L0.0750494 21.45L-0.174951 21.2625V20.975L0.112548 20.8875L0.362548 21.075L0.587548 20.8875L0.837548 20.975L0.875049 21.2625L0.637549 21.45L0.962548 21.7875L1.33755 21.45L1.11255 21.2625V20.975L1.38755 20.8875L1.63755 21.075L1.86255 20.8875L2.11255 20.975L2.15005 21.2625L1.91255 21.45L2.28755 21.7875H2.53755L3.61255 20.8375L3.32505 20.65L3.13755 20.8375L2.86255 20.7875L2.76255 20.6L2.95005 20.4125L2.76255 20.225L2.86255 20.0375L3.13755 19.9875L3.32505 20.175L3.66255 19.8875V19.85L3.32505 19.5625L3.13755 19.75H2.87505L2.77505 19.5125L2.96255 19.325L2.77505 19.1375L2.87505 18.95H3.15005L3.33755 19.0875L3.67505 18.85V18.7625L3.33755 18.5125L3.15005 18.7125L2.87505 18.6625L2.77505 18.475L2.96255 18.2875L2.77505 18.1L2.87505 17.9125L3.15005 17.8625L3.33755 18.05L3.62505 17.8125L2.53755 16.875H2.30005L1.92505 17.2L2.16255 17.4375V17.725L1.87505 17.8125L1.63755 17.625L1.40005 17.8125L1.17505 17.725L1.12505 17.4375L1.36255 17.2L1.02505 16.875L0.650048 17.2L0.887549 17.4375V17.725L0.600049 17.8125L0.362548 17.625L0.125049 17.8125L-0.0999517 17.725L-0.149951 17.4375L0.0875483 17.2L-0.249951 16.875L-0.624951 17.2L-0.387452 17.4375V17.725L-0.674951 17.8125L-0.912452 17.625L-1.14995 17.8125L-1.38745 17.725L-1.42495 17.4375L-1.18745 17.2L-1.56245 16.875H-1.77495ZM-2.89995 19.2375V19.4625L-2.77495 19.3375L-2.89995 19.2375Z" fill="#D22630"/>
<path d="M-0.875097 21.6375L-1.0626 21.7875H-0.687597L-0.875097 21.6375ZM0.399902 21.6375L0.212402 21.7875H0.587402L0.399902 21.6375ZM1.6749 21.6375L1.4874 21.7875H1.8624L1.6749 21.6375ZM-1.0751 16.9125L-0.875097 17.0625L-0.687597 16.875L-1.0751 16.9125ZM0.212402 16.9125L0.399902 17.0625L0.587402 16.875L0.212402 16.9125ZM1.4874 16.9125L1.6749 17.0625L1.8624 16.875L1.4874 16.9125ZM3.7124 18.1875L3.5624 18.2875L3.7124 18.3875V18.1875ZM3.7124 19.2375L3.5624 19.325L3.7124 19.4625V19.2375ZM3.7124 20.325L3.5624 20.4125L3.7124 20.5125V20.325ZM-2.9126 18.15V18.3875L-2.7626 18.2875L-2.9126 18.15ZM-2.9126 19.2375V19.4625L-2.7626 19.3375L-2.9126 19.2375ZM-2.9126 20.275V20.5125L-2.7626 20.4125L-2.9126 20.275Z" fill="white"/>
<path d="M1.50005 19V18.625H1.11255V18.1875H-0.31245V18.6125H-0.68745V18.9875H-1.19995V19.7H-0.68745V20.075H-0.31245V20.5125H1.12505V20.0375H1.50005V19.7H2.02505V19H1.50005Z" fill="#383739"/>
<path d="M0.400146 18.25V18.6625L-0.212353 19V19.325H-1.16235V19.0375H-0.687353V18.6625H-0.262354V18.1875L0.400146 18.25ZM0.400146 20.4625V19.9875L1.02515 19.6625V19.375H1.96265V19.6625H1.48765V20.0375H1.06265V20.4625H0.400146Z" fill="#FFC72C"/>
<path d="M1.01265 19.325V19L0.400146 18.6625V18.1875H1.06265V18.6625H1.43765V19.0375H1.96265V19.325H1.01265ZM-1.16235 19.325H-0.212353V19.6625L0.412647 20.0375V20.4625H-0.262354V19.9875H-0.637354V19.6625H-1.16235V19.325Z" fill="white"/>
<path d="M-0.162354 19.375V19.6625L0.400146 19.9875V19.3625L-0.162354 19.375Z" fill="#D22630"/>
<path d="M0.400146 18.7125L-0.162354 19.0375V19.325H0.400146V18.7125Z" fill="#00843D"/>
<path d="M0.962646 19.325V19.0375L0.400146 18.7125V19.3375L0.962646 19.325Z" fill="#D22630"/>
<path d="M0.400146 20L0.962646 19.6625V19.375H0.400146V20Z" fill="#00843D"/>
<path d="M-4.7499 26.875V28.0625H-5.8374V29.1125H-6.9624V32.125H-5.8374V33.2125H-4.7999V34.35H-0.737402L-0.0249023 34.825L-0.349903 35.0125H-1.7749L-1.9124 34.875H-0.537403L-0.912403 34.5H-2.8124L-1.9624 35.3875H-0.212402L0.412598 34.9625L1.0126 35.3375H2.7626L3.6126 34.45H1.7251L1.3501 34.825H2.6751L2.5751 34.9625H1.1126L0.775097 34.725L1.4876 34.3H5.5501V33.175H6.6376V32.125H7.7626V29.125H6.6376V28.075H5.6001V26.9H1.5376L0.825098 26.425L1.1626 26.2375H2.5751L2.7126 26.375H1.3376L1.7251 26.75H3.6126L2.7626 25.8625H1.0126L0.400097 26.2375L-0.212402 25.8625H-1.9624L-2.8124 26.8H-0.924902L-0.549902 26.375H-1.8624L-1.7749 26.2375H-0.312403L0.0250969 26.475L-0.687403 26.9L-4.7499 26.875Z" fill="#D22630"/>
<path d="M1.5 34.3H5.5V33.175H6.55V32.0875H7.675V29.15H6.55V28.0625H5.4625V26.9375H1.4375L-0.25 25.875H-1.95L-2.7 26.6875H-0.950001L-0.674999 26.4H-1.95L-1.7625 26.1625H-0.299999L1.6 27.35H5.125V28.475H6.25V29.5625H7.4V31.65H6.25V32.7375H5.125V33.9125H1.6625L-0.225 35.0375H-1.7375L-1.925 34.8125H-0.65L-0.9375 34.525H-2.6875L-1.9375 35.325H-0.1875L1.5 34.3ZM-0.825001 33.925H-4.275V32.75H-5.375V31.6625H-6.5V29.575H-5.375V28.5H-4.3375V27.4125H-0.875L1.0125 26.2375H2.525L2.7125 26.475H1.4375L1.725 26.7625H3.475L2.75 25.875H1L-0.65 26.925H-4.7125V28.05H-5.75V29.1375H-6.875V32.075H-5.75V33.1625H-4.65V34.2875H-0.5875L1.0625 35.325H2.7625L3.5125 34.525H1.7625L1.4875 34.8125H2.7625L2.575 35.05H1.1125L-0.825001 33.925Z" fill="#FFC72C"/>
<path d="M4.7501 32.4125V33.5375H1.5376L0.412598 34.25L-0.737402 33.55H-3.9499V32.425H-5.0374V31.325H-6.2124V29.9125H-5.0874V28.825H-3.9874V27.7H-0.774902L0.350098 27.025L1.4876 27.6875H4.7001V28.8125H5.7876V29.9125H7.0126V31.325H5.8876V32.4125H4.7501Z" fill="#00843D"/>
<path d="M-3.5249 32V33.075H-1.7249L-3.5249 31.8875V32ZM-3.5249 29.25V28.125H-1.7249L-3.5249 29.3V29.25ZM4.3251 32V33.075H2.5251L4.3251 31.8875V32ZM4.3251 29.25V28.125H2.5251L4.3251 29.3V29.25Z" fill="#383739"/>
<path d="M-3.47485 32.0375L-1.86235 33.075H-3.47485V32.0375ZM-3.47485 29.2L-1.86235 28.1625H-3.47485V29.2ZM4.27515 32.0375L2.67515 33.075H4.27515V32.0375ZM4.27515 29.2L2.67515 28.1625H4.27515V29.2Z" fill="#D22630"/>
<path d="M2.05 30.2875V29.7625H2.25L3.1875 29.2L4.1375 29.7625H4.375V30.3375H4.8V31H4.325V31.5625H4.1875L3.2375 32.125L2.2875 31.5625H2.1V31H1.4375V30.25L2.05 30.2875Z" fill="#383739"/>
<path d="M3.2376 29.2L2.2876 29.725H4.0376L3.2376 29.2ZM2.2876 31.5125L3.1376 32.0375L4.0376 31.5125H2.2876ZM2.4751 30.3375V30.9H3.5626V30.3375H2.4751Z" fill="#D22630"/>
<path d="M2.1 30.95V31.4625H3.1875V30.95H2.1ZM3.225 30.95V31.4625H4.325V30.95H3.225ZM1.4375 30.325V30.9H2.525V30.3375L1.4375 30.325ZM3.6625 30.325V30.9H4.75V30.3375L3.6625 30.325ZM2.1 29.7625V30.2875H3.1875V29.8125L2.1 29.7625ZM3.225 29.7625V30.2875H4.325V29.8125L3.225 29.7625Z" fill="#FFC72C"/>
<path d="M4.0001 30.475V30.7625H4.4626V30.475H4.0001ZM3.5251 29.9125V30.1875H3.9876V29.9125H3.5251ZM2.3876 29.9125V30.1875H2.8626V29.9125H2.3876ZM2.8626 30.475V30.7625H3.3251V30.475H2.8626ZM1.7251 30.475V30.7625H2.2001V30.475H1.7251ZM2.3876 31.0375V31.325H2.8626V31.0375H2.3876ZM3.5126 31.0375V31.325H3.9876V31.0375H3.5126Z" fill="#383739"/>
<path d="M3.9999 30.525H4.4124V30.7125H3.9999V30.525ZM3.5624 29.9625H3.9374V30.15H3.5624V29.9625ZM2.4374 29.9625H2.8624V30.15H2.4374V29.9625ZM2.8999 30.525H3.2749V30.7125H2.8999V30.525ZM1.7749 30.525H2.1499V30.7125H1.8249L1.7749 30.525ZM2.4374 31.0875H2.8624V31.275H2.4374V31.0875ZM3.5624 31.0875H3.9374V31.275H3.5624V31.0875Z" fill="white"/>
<path d="M1.5375 29.3375V29.9125H1.35L0.4 30.525L-0.5375 29.9H-0.75V29.3375H-1.3125V28.725H-0.75V28.1625H-0.549999L0.387501 27.5375L1.3375 28.1625H1.525V28.725H2.0875V29.3L1.5375 29.3375Z" fill="#383739"/>
<path d="M0.400049 30.475L1.25005 29.9125H-0.449951L0.400049 30.475ZM1.25005 28.125L0.400049 27.65L-0.449951 28.125H1.25005Z" fill="#FFC72C"/>
<path d="M1.5 28.725V28.1625H0.450001V28.725H1.5ZM0.4 28.725V28.1625H-0.6875V28.725H0.4ZM2.05 29.3V28.825H0.9625V29.3H2.05ZM0.924999 29.3V28.825H-0.0750008V29.3H0.924999ZM-0.1625 29.3V28.825H-1.25V29.3H-0.1625ZM1.4875 29.8625V29.3375H0.450001V29.8625H1.4875ZM0.4 29.8625V29.3375H-0.6875V29.8625H0.4Z" fill="#D22630"/>
<path d="M0.0749035 28.3V28.5875H-0.400097V28.35L0.0749035 28.3ZM1.1999 28.3V28.5875H0.749903V28.35L1.1999 28.3ZM-0.500097 28.875V29.2H-0.975098V28.825L-0.500097 28.875ZM0.637403 28.875V29.2H0.162403V28.825L0.637403 28.875ZM1.7624 28.875V29.2H1.2999V28.825L1.7624 28.875ZM0.0749035 29.4875V29.7625H-0.400097V29.5L0.0749035 29.4875ZM1.1999 29.4875V29.7625H0.749903V29.5L1.1999 29.4875Z" fill="#383739"/>
<path d="M0.0249023 28.35H-0.350098V28.5375H0.0249023V28.35ZM1.1499 28.35H0.774902V28.5375H1.1499V28.35ZM-0.537598 28.9125H-0.912598V29.1625H-0.537598V28.9125ZM0.587402 28.9125H0.212402V29.1625H0.587402V28.9125ZM1.7249 28.9125H1.3499V29.1625H1.7249V28.9125ZM0.0249023 29.4875H-0.350098V29.725H0.0249023V29.4875ZM1.1499 29.4875H0.774902V29.725H1.1499V29.4875Z" fill="white"/>
<path d="M1.5375 32.5V33.125H1.35L0.4 33.6875L-0.5375 33.125H-0.75V32.5H-1.3125V31.8875H-0.75V31.325H-0.549999L0.387501 30.7125L1.3375 31.3375H1.525V31.8875H2.0875V32.5125L1.5375 32.5Z" fill="#383739"/>
<path d="M0.400049 33.6375L1.25005 33.125H-0.449951L0.400049 33.6375ZM1.25005 31.275L0.400049 30.8125L-0.449951 31.275H1.25005Z" fill="#FFC72C"/>
<path d="M1.5 31.8875V31.375H0.450001V31.8875H1.5ZM0.4 31.8875V31.375H-0.6875V31.8875H0.4ZM2.05 32.4625V31.9375H0.9625V32.4625H2.05ZM0.924999 32.4625V31.9375H-0.0750008V32.4625H0.924999ZM-0.1625 32.4625V31.9375H-1.25V32.4625H-0.1625ZM1.4875 33.075V32.5125H0.450001V33.075H1.4875ZM0.4 33.075V32.5125H-0.6875V33.075H0.4Z" fill="#D22630"/>
<path d="M0.0749035 31.4625V31.8H-0.400097V31.4625H0.0749035ZM1.1999 31.4625V31.8H0.749903V31.4625H1.1999ZM-0.500097 32.125V32.4125H-0.975098V32.125H-0.500097ZM0.637403 32.125V32.4125H0.162403V32.125H0.637403ZM1.7624 32.125V32.4125H1.2999V32.125H1.7624ZM0.0749035 32.6V32.8875H-0.400097V32.6H0.0749035ZM1.1999 32.6V32.8875H0.749903V32.6H1.1999Z" fill="#383739"/>
<path d="M0.0249023 31.5125H-0.350098V31.7625H0.0249023V31.5125ZM1.1499 31.5125H0.774902V31.7625H1.1499V31.5125ZM-0.537598 32.1375H-0.912598V32.325H-0.537598V32.1375ZM0.587402 32.1375H0.212402V32.325H0.587402V32.1375ZM1.7249 32.1375H1.3499V32.325H1.7249V32.1375ZM0.0249023 32.7H-0.350098V32.8875H0.0249023V32.7ZM1.1499 32.7H0.774902V32.8875H1.1499V32.7Z" fill="white"/>
<path d="M-5.75 39.45L-1.5 37.1875H2.2875L6.5375 39.45V43.1875L2.2875 45.4H-1.4875L-5.7375 43.1875L-5.75 39.45Z" fill="#383739"/>
<path d="M-1.49995 37.2375L-5.69995 39.45V43.1375L-1.48745 45.4H2.28755L6.50005 43.1375V39.45L2.33755 37.25L-1.49995 37.2375ZM-1.43745 37.5125H2.28755L6.26255 39.6375V42.95L2.28755 45.075H-1.39995L-5.36245 42.95V39.625L-1.43745 37.5125Z" fill="#00843D"/>
<path d="M0.399902 41.3V45.075H2.2874L6.2124 42.95V41.3375H0.399902V37.5625H-1.4876L-5.4126 39.6375V41.3H0.399902Z" fill="#FFC72C"/>
<path d="M0.399902 41.3V45.075H-1.4876L-5.4126 42.95V41.3375H0.399902V37.5625H2.2874L6.2124 39.6375V41.3H0.399902Z" fill="white"/>
<path d="M0.737499 44.8375V43.75L0.4 44L0.0750008 43.75V44.8375H-1.0625L-0.3125 44.275V43.525L-1.4375 42.8125H-2.1875V39.7875H-1.4875L-0.362499 39.075V38.325L-1 37.75H0.125V38.8375L0.4625 38.65L0.7875 38.8375V37.8H1.925L1.175 38.3625V39.1125L2.3 39.825H3.1125V42.85H2.3L1.175 43.5625V44.3125L1.925 44.8875L0.737499 44.8375Z" fill="#383739"/>
<path d="M0.775097 37.8V38.925L0.400097 38.7V39.025L2.1501 40.1125H2.7126V41.3H3.0001V39.875H2.2501L1.0626 39.125V38.275L1.7251 37.8H0.775097ZM-2.1499 41.3375V42.7625H-1.4874L-0.312403 43.5125V44.325L-0.974903 44.7875H-0.0249023V43.6625L0.350098 43.8875V43.5625L-1.3999 42.475H-1.9624V41.35L-2.1499 41.3375Z" fill="#FFC72C"/>
<path d="M-0.924902 37.8L-0.262403 38.275V39.125L-1.4374 39.825H-2.1499V41.25H-1.9124V40.1625H-1.3499L0.400097 39.075V38.75L0.0250969 38.975V37.8H-0.924902ZM2.7126 41.3375V42.475H2.1501L0.400097 43.5625V43.8875L0.775097 43.6625V44.7875H1.7251L1.0626 44.325V43.4625L2.2501 42.7125H3.0001V41.3L2.7126 41.3375Z" fill="white"/>
<path d="M-1.875 42.425H-1.35L0.4 43.5625L2.15 42.4375H2.675V40.1625H2.15L0.4 39.075L-1.35 40.1625H-1.825L-1.875 42.425Z" fill="#D22630"/>
<path d="M1.58745 41.8625H1.96245V41.675H1.67495V41.3375H2.29995V42.15H1.72495V42.7125H0.537451V41.9125H1.06245V42.2375H0.87495V42.3875H1.34995V42.1L-0.82505 40.775H-1.20005V40.9125H-0.925049V41.25H-1.48755V40.45H-0.925049V39.875H0.262451V40.675H-0.212549V40.35H-0.0750504V40.2125H-0.53755V40.4875L1.58745 41.8625ZM1.38745 40.4875V40.2125H0.87495V40.35H1.06245V40.675H0.537451V39.875H1.72495V40.45H2.28745V41.25H1.67495V40.9125H1.96245V40.775H1.58745L-0.53755 42.05V42.3375H-0.0750504V42.1875H-0.25005V41.875H0.27495V42.675H-0.91255V42.1125H-1.47505V41.3125H-0.862549V41.6375H-1.15005V41.825H-0.775049L1.38745 40.4875Z" fill="#383739"/>
<path d="M1.4376 42.05V42.425H0.875097V42.1875H1.0626V41.9625H0.637598V42.6625H1.7251V42.1H2.2876V41.375H1.8251V41.625H2.0501V41.9H1.6251L-0.587402 40.475V40.15H0.0250969V40.3875H-0.162403V40.625H0.312597V39.9125H-0.824903V40.475H-1.3999V41.1875H-0.924902V40.95H-1.1624V40.7125H-0.737402L1.4376 42.05ZM1.5876 40.725H2.0501V40.975H1.7251V41.2H2.2876V40.5H1.7251V39.9375H0.637598V40.65H1.0626V40.4H0.875097V40.175H1.5001V40.55L-0.737402 41.925H-1.1624V41.625H-0.874903V41.3875H-1.3499V42.1H-0.824903V42.6625H0.262598V41.9625H-0.162403V42.1875H0.0250969V42.4375H-0.599903V42.0625L1.5876 40.725Z" fill="white"/>
<path d="M5.3126 41.4875V42.6625H4.8376V42.25H4.3251V42.675H3.8001V41.5H4.2751V41.925H4.8001V41.5L5.3126 41.4875ZM3.5251 43.0375V44.225H3.0501V43.8H2.5251V44.225H2.0501V43.0375H2.5251V43.4625H3.0001V43.0375H3.5251ZM5.3126 41.1625V39.925H4.8376V40.35H4.3251V39.925H3.8001V41.1125H4.2751V40.675H4.8001V41.15L5.3126 41.1625ZM-4.5124 41.4875V42.6625H-4.0374V42.25H-3.5249V42.675H-2.9999V41.5H-3.4749V41.925H-3.9874V41.5L-4.5124 41.4875ZM-4.5124 41.1125V39.925H-4.0374V40.35H-3.5249V39.925H-2.9999V41.1125H-3.4749V40.675H-3.9874V41.15L-4.5124 41.1125ZM3.5251 39.55V38.3625H3.0501V38.7875H2.5251V38.375H2.0501V39.5625H2.5251V39.125H3.0001V39.6L3.5251 39.55ZM-2.7249 43.05V44.225H-2.2499V43.8H-1.7249V44.225H-1.1999V43.0375H-1.6749V43.4625H-2.1999V43.0375L-2.7249 43.05ZM-2.7249 39.55V38.3625H-2.2499V38.7875H-1.7249V38.375H-1.1999V39.5625H-1.6749V39.125H-2.1999V39.6L-2.7249 39.55ZM3.8001 38.75V39.6375H5.4626L3.8001 38.75ZM-2.9999 43.875V42.9375H-4.6499L-2.9999 43.875ZM-2.9999 38.6875V39.625H-4.6499L-2.9999 38.6875ZM3.8001 43.875V42.9375H5.4626L3.8001 43.875Z" fill="#383739"/>
<path d="M4.8376 42.1875V42.6625H5.2626V41.5375H4.8376V41.9625H4.2751V41.5375H3.8001V42.6125H4.2751V42.1875H4.8376ZM3.0501 43.75V44.225H3.4751V43.1H3.0501V43.5125H2.4751V43.0875H2.0501V44.175H2.4751V43.75H3.0501ZM4.8376 40.4V39.975H5.2626V41.0625H4.8376V40.625H4.2751V41.1H3.8001V39.9625H4.2751V40.3875L4.8376 40.4ZM-4.0374 42.1875V42.6625H-4.4624V41.5375H-4.0374V41.9625H-3.4749V41.5375H-2.9999V42.6125H-3.4749V42.1875H-4.0374ZM-4.0374 40.4V39.975H-4.4624V41.0625H-4.0374V40.625H-3.4749V41.1H-2.9999V39.9625H-3.4749V40.3875L-4.0374 40.4ZM3.0501 38.8375V38.4125H3.4751V39.5H3.0501V39.075H2.4751V39.55H2.0501V38.425H2.4751V38.8375H3.0501ZM-2.2499 43.75V44.225H-2.6749V43.1H-2.2499V43.5125H-1.6749V43.0875H-1.1999V44.175H-1.6749V43.75H-2.2499ZM-2.2499 38.8375V38.4125H-2.6749V39.5H-2.2499V39.075H-1.6749V39.55H-1.1999V38.425H-1.6749V38.8375H-2.2499Z" fill="#D22630"/>
<path d="M3.85005 38.7875V39.6H5.26255L3.85005 38.7875ZM-4.51245 43.0375L-3.09995 43.7875V43.0375H-4.51245Z" fill="#FFC72C"/>
<path d="M-3.0499 38.7875L-4.4624 39.6H-3.0499V38.7875ZM3.8501 43.0375V43.7875L5.2626 43.0375H3.8501Z" fill="white"/>
</g>
</g>
<defs>
<clipPath id="clip0_57_48">
<rect width="43" height="43" rx="21.5" fill="white"/>
</clipPath>
<clipPath id="clip1_57_48">
<rect width="80" height="60" fill="white" transform="translate(-18.5 -8.5)"/>
</clipPath>
<clipPath id="clip2_57_48">
<rect width="80" height="60" fill="white" transform="translate(-18.5 -8.5)"/>
</clipPath>
</defs>
</svg>
